# xmcd CD database file
#
# Track frame offsets:
#	150
#	16859
#	29630
#	40407
#	54761
#	69670
#	82715
#	93702
#	112151
#	125546
#	140921
#	152620
#
# Disc length: 2202 seconds
#
# Revision: 0
# Processed by: cddbd v1.5.2PL0 Copyright (c) Steve Scherf et al.
# Submitted via: CDex 1.51
#
DISCID=a108980c
DTITLE=Count Basie and Joe Williams - Memories Ad Lib
DYEAR=1984
DGENRE=Jazz
TTITLE0=Ain't Misbehavin'
TTITLE1=I'll Always Be In Love With You
TTITLE2=Sweet Sue, Just You
TTITLE3=If I Could Be With You
TTITLE4=Dinah
TTITLE5=Sometime I'm Happy
TTITLE6=Baby Won't You Please Come Home
TTITLE7=Call Me Darling
TTITLE8=The One I Love Belongs to Somebody Else
TTITLE9=Memories Of You
TTITLE10=Honeysuckle Rose
TTITLE11=All Of Me
EXTD=YEAR: 1984
EXTT0=
EXTT1=
EXTT2=
EXTT3=
EXTT4=
EXTT5=
EXTT6=
EXTT7=
EXTT8=
EXTT9=
EXTT10=
EXTT11=
PLAYORDER=
